<svg xmlns="http://www.w3.org/2000/svg" viewBox="0 0 500 170"><path fill="#fff" stroke="#438CBD" stroke-width=".5" stroke-linecap="square" stroke-linejoin="bevel" stroke-miterlimit="10" d="M113.5 45.6l.2-.1-.5-.8 2.9.3-1.3.8z"/><path fill="#fff" stroke="#438CBD" stroke-width=".5" stroke-linecap="square" stroke-linejoin="bevel" stroke-miterlimit="10" d="M114.9 47l-.2.2.1-1.4 1.3-.8-3.1 27.5-.4.4.2-1.8.5-4.3 2.1-19zM60 76.3L48.9 83l.8-1.5z"/><path fill="#fff" stroke="#438CBD" stroke-width=".5" stroke-linecap="square" stroke-linejoin="bevel" stroke-miterlimit="10" d="M63.5 81.3l51.9-33.5-2.1 19-4.1 3.5 1.7-15.9 1.6-1.1.2-1.8-1.5-.2-7 4.6-.2 1.9 1.1.2-1.6 17-12.4 10.6 1.2-18.5 2.1-1.5.2-2.1-1.7-.3-10.3 6.7-.1 2.3 1.8.4-1 19.5L63.5 109V81.3zm2 5.9l-.1 9.8 16.7-12.9.4-8.8-17 11.9zm37.8-19.4l.7-7.5-11.1 7.8-.6 8.2 11-8.5zm9.9-14.3l-2.1 1.5-.8 7.4 2.1-1.6.8-7.3z"/><path fill="#fff" stroke="#438CBD" stroke-width=".5" stroke-linecap="square" stroke-linejoin="bevel" stroke-miterlimit="10" d="M82.6 69.9l10.3-6.8 1.7.4-10.2 6.7z"/><path fill="#fff" stroke="#438CBD" stroke-width=".5" stroke-linecap="square" stroke-linejoin="bevel" stroke-miterlimit="10" d="M82.5 72.2l.1-2.3 1.8.3-.1 2.4zm.9 19.9l.9-19.5 1.3-.9-1.1 20.7zm-.1.1l1.2.2-.3 5.1-1.1-.3zM104 57.7l.2-1.9 1.5.2-.1 2-.4-.1zm.2-1.9l7-4.6 1.4.3-6.9 4.5z"/><path fill="#fff" stroke="#438CBD" stroke-width=".5" stroke-linecap="square" stroke-linejoin="bevel" stroke-miterlimit="10" d="M103.6 75l1.6-17.1.4.1.7-.5-1.7 17.7z"/><path fill="#fff" stroke="#438CBD" stroke-width=".5" stroke-linecap="square" stroke-linejoin="bevel" stroke-miterlimit="10" d="M103.6 75l1 .2-.4 4.4-1-.2zM83.3 92.2l-.2 5-1.8 1.6v.4l-17.8 15.9V109z"/><path fill="#fff" stroke="#438CBD" stroke-width=".5" stroke-linecap="square" stroke-linejoin="bevel" stroke-miterlimit="10" d="M81.3 99.2v-.4l1.7.4-.1 2.1-.3-.1-1.3-.4z"/><path fill="#fff" stroke="#438CBD" stroke-width=".5" stroke-linecap="square" stroke-linejoin="bevel" stroke-miterlimit="10" d="M81.3 98.8l1.8-1.6 1.1.3 6.5-5.8.1-1.3.3-.3.3.1 1.3.3-9.7 8.7z"/><path fill="#fff" stroke="#438CBD" stroke-width=".5" stroke-linecap="square" stroke-linejoin="bevel" stroke-miterlimit="10" d="M91.1 90.1l-.3.3.2-3.6.1-1.2L103.6 75l-.4 4.4-1.2 1-.1.4-10.5 9.4z"/><path fill="#fff" stroke="#438CBD" stroke-width=".5" stroke-linecap="square" stroke-linejoin="bevel" stroke-miterlimit="10" d="M101.9 80.8l.1-.4 1.4.4-.1 1.7-.3-.1-1.2-.2z"/><path fill="#fff" stroke="#438CBD" stroke-width=".5" stroke-linecap="square" stroke-linejoin="bevel" stroke-miterlimit="10" d="M102 80.4l1.2-1 1 .2 4.4-4 .2-1.2.2.1 1.1.2-6.7 6.1zM81.3 99.2v1.6l1.3.4-.5.4-2.9 2.7-3.6 3.2-.3.3-4.7 4.4-2.4 2.2-4.7 4.3v-3.6z"/><path fill="#fff" stroke="#438CBD" stroke-width=".5" stroke-linecap="square" stroke-linejoin="bevel" stroke-miterlimit="10" d="M82.1 101.6l.5-.4.3.1 9.7-8.9v-.5l10.4-9.5.3.1 1.4-1.3-.6 1.5-.3.8L81 104.8z"/><path fill="#fff" stroke="#438CBD" stroke-width=".5" stroke-linecap="square" stroke-linejoin="bevel" stroke-miterlimit="10" d="M103 82.4l-10.4 9.5.1-1.4-1.3-.3 10.5-9.4-.1 1.4zm-12.3 9.3l-6.5 5.8.3-5.1 6.5-5.6-.2 3.6zm17.9-16.1l-4.4 4 .4-4.4 4.5-3.9-.3 3.1zm-45.1 27.2v6.2l-5 .9-.5.6-9.7 4.8-.1-3.4.9-.4-3.7.6z"/><path fill="#fff" stroke="#438CBD" stroke-width=".5" stroke-linecap="square" stroke-linejoin="bevel" stroke-miterlimit="10" d="M58 110.5l.5-.6 5-.9-18.4 8.5.3-5.4 3.7-.6-.9.4.1 3.4zm51.2-40.3l4.1-3.4-.5 4.3-3.8 3.4-.2-.1.3-3.1zm-65.7 44.7l-.1 2-.4.4-1 .7-.1-2.1 1.6-1.2zm-14.8-5.5l-.1 1.9-1.2.9-.2.2-.2-2.1 1.6-1.1z"/><path fill="#fff" stroke="#438CBD" stroke-width=".5" stroke-linecap="square" stroke-linejoin="bevel" stroke-miterlimit="10" d="M27.4 112.2l.1 1.2-1.5 1-.1-2.1.4-.3.9.4zm58.5-53.3l-1.6-.2.2-3.7.9.1z"/><path fill="#fff" stroke="#438CBD" stroke-width=".5" stroke-linecap="square" stroke-linejoin="bevel" stroke-miterlimit="10" d="M101.1 50.2l-15.2 8.7-.5-3.8 15.4-8.3zm-15.7 4.9l-.9-.1 15.5-8.3.8.1zm3.3 26.3l.6-11 2.4-1.7-.7 10.9zm0-10.6L88 81.9l-2.4 1.9.6-11.3zm24.8-25.2l1.2 1.6.2-.2.5.8-51.9 33.5-3.5-5 53.2-31.6.5.8zM60 76.3l3.5 5L48.9 83z"/><path fill="#fff" stroke="#438CBD" stroke-width=".5" stroke-linecap="square" stroke-linejoin="bevel" stroke-miterlimit="10" d="M48.9 83l14.6-1.7L47 88.2z"/><path fill="#fff" stroke="#438CBD" stroke-width=".5" stroke-linecap="square" stroke-linejoin="bevel" stroke-miterlimit="10" d="M48.9 83L47 88.2l-23.3-6.6 1.9-4.9z"/><path fill="#fff" stroke="#438CBD" stroke-width=".5" stroke-linecap="square" stroke-linejoin="bevel" stroke-miterlimit="10" d="M23.7 81.6L47 88.2l-1.6 23.9-22.3-8zm2.7-6.3l6.7-6.4 26.6 6.3-10 6.3zm37.1 6v21.5L47 88.2zm-40.6 27.9l.2-5.1 22.3 8-.3 5.4-1.7-.6.1-2v-.2l-3.8-1.4-1.6 1.2v.4l-9.5-3.6.1-1.9-.1-.2-3.5-1.3-1.6 1.1v.4z"/><path fill="#fff" stroke="#438CBD" stroke-width=".5" stroke-linecap="square" stroke-linejoin="bevel" stroke-miterlimit="10" d="M43.4 117l1.7.5.3 6.5-16.8-6.7-5.1-2-.6-6.1.6.2.2 1.6.4.2-.4.3.2 2 2.1.9 1.5-1-.1-1.2 1.2-.8 9.5 3.5.1 1.7 1.9.7-.4.3.1 2.1 2.4.9 1.3-1.1-.1-2.1-.4-.1zm20.1-14.2l-18.1 9.3L47 88.2zM48.9 83l-23.3-6.3.8-1.4 23.3 6.2zm64.3-38.3L60 76.3l-.3-1.1L113.1 44l.1.6zM65.4 97l.1-9.8 17.1-11.9-.4 8.8zM104 60.3l-.7 7.5-11 8.5.5-8.2zm3.8 5.9l.9-9.4 1.6-1.1-.9 9.3zm.5-9.1l-.9 9.5-1.7 1.3 1-9.6zm2.8-2.1l2.1-1.5-.8 7.2-2.1 1.7zm-1.2 21.4l-.1.2-.2.5-.2.5-.2.3-.2.3-.3.1-.2.1-.1-.1-.2-.2zm-5.7 6.2l.5-1.4.5-.5v.2l-.3.6-.2.5-.3.3zm-36.6 33.8l.6-2 2.4-2.2-.1.2-.3.8-.3.8-.5.7-.4.7-.5.5-.4.3zm11.5-12.1v.2l-.3.8-.3.7-.4.7-.4.5-.4.5-.4.3-.4.1h-.3l-.3-.1-.2-.3zm-31.2-49l2.8-1.2 7.5 1.4 11.5 2.1-2.6 1.3z"/><path fill="#fff" stroke="#438CBD" stroke-width=".5" stroke-linecap="square" stroke-linejoin="bevel" stroke-miterlimit="10" d="M23.9 113.5l-.2-2 2.2.8.1 2.1zm56-58.5L72 59.1l-2.3-1.5-11.5-2.1 6.7-2.9.2-.1.8.2 4.3.7zm3.2-10.6l-17.2 7.5-.8-.2 17.2-7.5z"/><path fill="#fff" stroke="#438CBD" stroke-width=".5" stroke-linecap="square" stroke-linejoin="bevel" stroke-miterlimit="10" d="M64.9 52.6l.2-.9.8.2v.8l-.8-.2zm-17.2 16l-2.6-.6 9.9-9.1.6-.5 2.5.4z"/><path fill="#fff" stroke="#438CBD" stroke-width=".5" stroke-linecap="square" stroke-linejoin="bevel" stroke-miterlimit="10" d="M58.1 58.8l-2.5-.4-7.4-1.4-.3-.1-2 1-.1-1.5 2.1-1.1 19.2 3.6 2.5 1.6v1.7l-2.5-1.6-7.9-1.5z"/><path fill="#fff" stroke="#438CBD" stroke-width=".5" stroke-linecap="square" stroke-linejoin="bevel" stroke-miterlimit="10" d="M69.6 60.5l-2.5-1.6 2.6-1.3 2.3 1.5.1.1zm0 0l2.5-1.3v1.7l-.2.1-2.3 1.2zM27 110.3l.2 2.1-.9-.4-2.2-.8-.4-.2-.2-1.6v-.4z"/><path fill="#fff" stroke="#438CBD" stroke-width=".5" stroke-linecap="square" stroke-linejoin="bevel" stroke-miterlimit="10" d="M25.1 107.9l3.5 1.3-1.6 1.1-3.5-1.3zm18.4 6.8l-1.6 1.2-3.8-1.4 1.6-1.2z"/><path fill="#fff" stroke="#438CBD" stroke-width=".5" stroke-linecap="square" stroke-linejoin="bevel" stroke-miterlimit="10" d="M38.1 114.5l3.8 1.4.1 2.1-1.9-.7-1.9-.7-.1-1.7zm1.7 5.2l-.1-2.1 2.3.9.2 2.1zm22.6 2.6l1.1-3.6 4.7-4.3-.7 2-.4 1.5zm19.7-20.7l-1.1 3.2-1.8-.5zM109 74.5l3.8-3.4-.2 1.8-.1.7-2.4 2.3v-1.2zm-45.5 44.2l-13.9 5.5 13.9-9.1zm20.8-46.1l.1-2.4 10.2-6.7-.1 2.1-2.2 1.5-6.7 4.6z"/><path fill="#fff" stroke="#438CBD" stroke-width=".5" stroke-linecap="square" stroke-linejoin="bevel" stroke-miterlimit="10" d="M84.5 92.4l1.1-20.7 6.7-4.6-1.2 18.5-.1 1.2-6.5 5.6zm4.8-22l-.7 11 2.3-1.8.7-10.8-2.3 1.6zM88 81.9l.6-11.1-2.5 1.7-.6 11.3 2.5-1.9zm-5.1 19.4l.1-2.1 9.7-8.7-.1 1.4v.5zm20.4-18.8l.1-1.7 6.7-6.1-.1 1.3v.3l-1.8 1.7-.3.2-2.7 2.5-.5.5zm1.3-7.3l1.7-17.7 4.6-3.1-1.7 15.9-.1 1.1-4.5 3.8zm4.1-18.4l-.9 9.4 1.6-1.2 1-9.3-1.7 1.1zm-1.3 9.8l.9-9.5-1.7 1.2-.9 9.6 1.7-1.3z"/><path fill="#fff" stroke="#438CBD" stroke-width=".5" stroke-linecap="square" stroke-linejoin="bevel" stroke-miterlimit="10" d="M105.6 58l.1-2 6.9-4.5-.2 1.8-1.5 1.1-4.6 3.1zm-62.2 59.4l.1 2.1-1.3 1.1-.2-2.1zm1.7.1l18.4-8.5v6.1L45.4 124zm48.3-76l19.7 2.5-53.4 31.2-26.6-6.3 21.9-10-9.9 9.1 2.6.6 7.7-.8 1.8-.9-2.5-.5-3.6.2 5.3-4.8L72.2 65l9.3-5.2-1.6-4.8-9.7-1.6L83 47.5l.1-1.3 10.3-4.7zm-9.1 17.2l1.6.3 15.2-8.8-.3-3.3-.9-.1L84.5 55l-.2 3.7z"/><path fill="#fff" stroke="#438CBD" stroke-width=".5" stroke-linecap="square" stroke-linejoin="bevel" stroke-miterlimit="10" d="M57.2 66.9l-1.8.9-7.7.8 10.4-9.8 1.1.3-2.8 2.6-5.3 4.8-.8.8zm24.2-7.2l-9.2 5.1-.3-3.8.2-.1v-1.7l-.1-.1 7.9-4.1zM83 47.5l-12.8 5.9-4.3-.7v-.8l17.2-7.5-.1 1.8zm-53.8 72.4l-.6-2.6 16.8 6.7 4.2.2-.6 3.7z"/><path fill="#fff" stroke="#438CBD" stroke-width=".5" stroke-linecap="square" stroke-linejoin="bevel" stroke-miterlimit="10" d="M49 127.9l.6-3.7 12.8-1.9z"/><path fill="#fff" stroke="#438CBD" stroke-width=".5" stroke-miterlimit="10" d="M49.1 111.5l-.9.4m10.2-4.9l-9.3 4.5"/><path fill="#FFF" stroke="#438CBD" stroke-width=".5" stroke-linecap="square" stroke-linejoin="bevel" stroke-miterlimit="10" d="M408.4 60.5l.1.3 2.7 1.9 1.1.4.9.7zm41.7 71.2l-.8 1.6h.4l.4-.1.4-.2.4-.2.3-.3.3-.3.2-.4z"/><path fill="#FFF" stroke="#438CBD" stroke-width=".5" stroke-linecap="square" stroke-linejoin="bevel" stroke-miterlimit="10" d="M451.9 130.3l-.2-.4-.2-.2-.3-.3-.3-.1-.8 2.4 1.6.1.2-.4.1-.4v-.4z"/><path fill="#FFF" stroke="#438CBD" stroke-width=".5" stroke-linecap="square" stroke-linejoin="bevel" stroke-miterlimit="10" d="M450.5 129.2h-.4l-.4.1-.4.2-.4.2-.4.3 1.6 1.7.8-2.4z"/><path fill="#FFF" stroke="#438CBD" stroke-width=".5" stroke-linecap="square" stroke-linejoin="bevel" stroke-miterlimit="10" d="M450.1 125.7l-.7-.1h-.7l-.7.2-.7.3-.7.4-.6.5 2.5 3 .4-.3.4-.2.4-.2.4-.1h.4l.4.1zm-1.6 4.3l-.3.4-.2.4-.1.4-.1.4v.4l2.3-.3z"/><path fill="#FFF" stroke="#438CBD" stroke-width=".5" stroke-linecap="square" stroke-linejoin="bevel" stroke-miterlimit="10" d="M446 127l-.5.6-.4.7-.3.7-.1.7v.7l3.1 1.6v-.4l.1-.4.1-.4.2-.4.3-.4zm1.8 5l.1.3.1.3.2.3.3.2.4.2h.4l.8-1.6z"/><path fill="#FFF" stroke="#438CBD" stroke-width=".5" stroke-linecap="square" stroke-linejoin="bevel" stroke-miterlimit="10" d="M448.5 133.1l-.3-.2-.2-.3-.1-.3-.1-.3-3.1-1.6.1.6.3.6.4.5.5.3.6.3 2.3.6zm-44.8-71.5l-.5.6-.4.5-.1.3h-.1l-.1 5.3.1-1 .3-1.1.6-1 .8-.8zm10.3 2.9l-.8-.7-.9-.7-1.1-.4 6.4 8 25.4 32.8 1.6.8 1.3 1z"/><path fill="#FFF" stroke="#438CBD" stroke-width=".5" stroke-linecap="square" stroke-linejoin="bevel" stroke-miterlimit="10" d="M417.6 70.7l-6.4-8-1.2-.2h-1.2l-1.2.1-1.2.4-1.1.6-1 .8 28.1 42.4 1.5-1.4 1.8-1.1 1.8-.7 1.9-.4h1.9l1.7.3zm-13.3-6.3l-.8.8-.6 1-.3 1.1-.1 1 .1 1.1 5.4 10.3 9 15.1 2.8 4.3.2.6.1.4 9.2 15.6-.1-1.8.3-1.9.6-1.9 1-1.7 1.3-1.6zM452 128l-.1-.6-.3-.6-.4-.5-.5-.3-.6-.3.8 3.6.3.1.3.3.2.2.2.4.1.3v.4z"/><path fill="#FFF" stroke="#438CBD" stroke-width=".5" stroke-linecap="square" stroke-linejoin="bevel" stroke-miterlimit="10" d="M451.9 125.6l-.2-.9-.3-.9-.5-.7-.7-.5-.8-.4.7 3.5.6.3.5.3.4.5.3.6.1.6z"/><path fill="#FFF" stroke="#438CBD" stroke-width=".5" stroke-linecap="square" stroke-linejoin="bevel" stroke-miterlimit="10" d="M449.4 122.2l-.9-.2h-.9l-1 .2-1 .4-.9.6-.8.8 2.1 3 .6-.5.7-.4.7-.3.7-.2h.7l.7.1zm-5.5 1.8l-.6.9-.6.9-.4 1-.1 1.1v1l2.5 1.5v-.7l.1-.7.3-.7.4-.7.5-.6z"/><path fill="#FFF" stroke="#438CBD" stroke-width=".5" stroke-linecap="square" stroke-linejoin="bevel" stroke-miterlimit="10" d="M446 132.4l-.5-.3-.4-.5-.3-.6-.1-.6-2.5-1.5.2.9.3.8.6.7.6.5.8.4 1.9.5zm5.8-10.4l-.2-1.3-.5-1.1-.7-1-.8-.8-1.1-.5.9 4.9.8.4.7.5.5.7.3.9.2.9zm-3.3-4.7l-1.1-.2h-1.3l-1.2.3-1.3.5-1.2.8-1 1 2.5 4.3.8-.8.9-.6 1-.4 1-.2h.9l.9.2z"/><path fill="#FFF" stroke="#438CBD" stroke-width=".5" stroke-linecap="square" stroke-linejoin="bevel" stroke-miterlimit="10" d="M441.4 119.7l-.9 1.1-.7 1.3-.5 1.4-.2 1.3v1.4l3.1 2.7v-1l.1-1.1.4-1 .6-.9.6-.9zm1.9 11.6l-.6-.7-.3-.8-.2-.9-3.1-2.7.3 1.2.5 1.1.7.9.9.7 2.4 1.7zm7-15.8l-2.7-7.3 2.2 5.9-.9-1.3-1.1-.9-1.3-.7 2 6.1 1.1.5.8.8.7 1 .5 1.1z"/><path fill="#FFF" stroke="#438CBD" stroke-width=".5" stroke-linecap="square" stroke-linejoin="bevel" stroke-miterlimit="10" d="M447.6 108.2l-.7-1.5-1-1.4-1.3-1-1.6-.8 3.5 7.7 1.3.7 1.1.9.9 1.3zm-1.1 3l-1.5-.3h-1.5l-1.6.3-1.6.7-1.4 1-1.4 1.3 3.9 5.5 1-1 1.2-.8 1.3-.5 1.2-.3h1.3l1.1.2z"/><path fill="#FFF" stroke="#438CBD" stroke-width=".5" stroke-linecap="square" stroke-linejoin="bevel" stroke-miterlimit="10" d="M443 103.5l-1.7-.3h-1.9l-1.9.4-1.8.7-1.8 1.1-1.5 1.4 5.1 7.4 1.4-1.3 1.4-1 1.6-.7 1.6-.3h1.5l1.5.3zm-5.5 10.7l-1.1 1.4-.8 1.6-.6 1.7-.3 1.8.1 1.6 4.3 3.9v-1.4l.2-1.3.5-1.4.7-1.3.9-1.1z"/><path fill="#FFF" stroke="#438CBD" stroke-width=".5" stroke-linecap="square" stroke-linejoin="bevel" stroke-miterlimit="10" d="M432.4 106.8l-1.3 1.6-1 1.7-.6 1.9-.3 1.9.1 1.8 5.5 6.6-.1-1.6.3-1.8.6-1.7.8-1.6 1.1-1.4z"/><path fill="#FFF" stroke="#438CBD" stroke-width=".5" stroke-linecap="square" stroke-linejoin="bevel" stroke-miterlimit="10" d="M435.1 123.9l-.3-1.6-5.5-6.6.4 1.7.8 1.5 5.2 6.4z"/><path fill="#FFF" stroke="#438CBD" stroke-width=".5" stroke-linecap="square" stroke-linejoin="bevel" stroke-miterlimit="10" d="M440.6 129.4l-.7-.9-.5-1.1-.3-1.2-4.3-3.9.3 1.6.6 1.4.9 1.1zm-33.7-67.8l-.9-4.1-2.5-19.8-1.1-1.4 1 21.5z"/><path fill="#FFF" stroke="#438CBD" stroke-width=".5" stroke-linecap="square" stroke-linejoin="bevel" stroke-miterlimit="10" d="M404.6 37.6h-.5l-.6.1 2.5 19.8.9 4.1 1.8-.1-1-4.1z"/><path fill="#FFF" stroke="#438CBD" stroke-width=".5" stroke-linecap="square" stroke-linejoin="bevel" stroke-miterlimit="10" d="M402.9 36.2l-.3-.1-.2.2 1.1 1.4.6-.1h.5zm-20.4 19.9l21.3 5.4-.9-4.1-21.3-3z"/><path fill="#FFF" stroke="#438CBD" stroke-width=".5" stroke-linecap="square" stroke-linejoin="bevel" stroke-miterlimit="10" d="M382.2 56.7l.3-.6 21.3 5.4-.6.7z"/><path fill="#FFF" stroke="#438CBD" stroke-width=".5" stroke-linecap="square" stroke-linejoin="bevel" stroke-miterlimit="10" d="M403.2 62.2l-21-5.5.3.5 20.1 5.8h.1zm-21.6-7.8l-.3.2.9 2.1.3-.6zm27.9 6.8l.7.5 13.9-7.5-.4-.5-14.2 7.5z"/><path fill="#FFF" stroke="#438CBD" stroke-width=".5" stroke-linecap="square" stroke-linejoin="bevel" stroke-miterlimit="10" d="M421.7 52.2l-14.2 4.1.2 1.1.7 3.1 1 .7 14.3-7.5zm2.4 2l-13.9 7.5.6.4 12.9-7.4.4-.5m-3.3 47.9l-.1-.5-10.3-3-70.6-22.9 44.3 15 .3-.2 2.3.7v.4l34.7 11.7zM410 83.7l9.8 15.4-9.9-2.5-19.5-5.9-50.6-16.1.8-3.3 46.2 10.1 5.5.8 10.2 1.5z"/><path fill="#FFF" stroke="#438CBD" stroke-width=".5" stroke-linecap="square" stroke-linejoin="bevel" stroke-miterlimit="10" d="M420.7 101.6l-10.3-3-19.6-6.3-51-16.6v-1.1l50.6 16.1 19.5 5.9 9.9 2.5zm6.7-19.8l11.1 14 3.1-2.2 10.6-8.4 25.1-20.5-5.2-2.5-29.5 14.7-12.3 4.4z"/><path fill="#FFF" stroke="#438CBD" stroke-width=".5" stroke-linecap="square" stroke-linejoin="bevel" stroke-miterlimit="10" d="M477.3 64.7l-25.1 20.5-10.6 8.4-3.1 2.2.7 1 .5.7 2.6-2.1 10.6-8.7 1-.9.8-.6.8-.7.4-.3 9.3-7.8.8-.7 1.3-1.1.9-.7 9.9-8.2z"/><path fill="#FFF" stroke="#438CBD" stroke-width=".5" stroke-linecap="square" stroke-linejoin="bevel" stroke-miterlimit="10" d="M469.1 74.6l-.9-.7-.8.8 4.7 5.5 1.7-.2zm3 5.6l1.7-.2 1.3 1.9-.7-.4h-.5l-.4.1-.3.3zm-5.6-2.7l-1.3-1.1.8-.7 2.5 1.9-.7-.3-.3-.1h-.2l-.3.1-.3.1zm2 .1l-2.5-1.9 1.3-1.1 3.2 3.8z"/><path fill="#FFF" stroke="#438CBD" stroke-width=".5" stroke-linecap="square" stroke-linejoin="bevel" stroke-miterlimit="10" d="M467.5 77.2l.3.1.7.3 2 .8zm.5 5.2v-.5l.2-.5.2-.6-2.6-2.5-.1.3-.1.3v.6l.1.2 2.6 3.7-.2-.4zm5.5 4.6l-.3-.2-.3-.3-.2-.3-.1-.4-.1-.4V85l.1-.5.2-.4.3-.4.3-.4.4-.3.4-.2.4-.2.4-.1h.4l.4.1.3.2.3.3.2.3.1.4.1.4v.4l-.1.5-.2.4-.3.4-.3.4-.4.3-.4.2-.4.2-.4.1h-.4l-.4-.1zm.8-3.6l-.3.2-.3.2-.2.3-.2.3-.2.3v.9l.1.3.2.2.2.2.2.1.3.1h.3l.3-.1.3-.1.3-.2.3-.2.2-.3.2-.3.1-.3.1-.3v-.6l-.1-.3-.1-.2-.2-.2-.3-.1-.2-.1h-.3l-.3.1-.4.1z"/><path fill="#FFF" stroke="#438CBD" stroke-width=".5" stroke-linecap="square" stroke-linejoin="bevel" stroke-miterlimit="10" d="M474.8 81.4l.2.4-.6-.3h-.5l-.4.1 1.1 1 .4-.1h.4l.4.1.4.2.2.3zm-4.2-2.9l-3.1-1.3h-.2l-.3.1-.3.1-.3.2-.2.2-.2.2-.2.3 2.6 2.5.3-.5.4-.5.4-.3.5-.3.6-.2.2-.3z"/><path fill="#FFF" stroke="#438CBD" stroke-width=".5" stroke-linecap="square" stroke-linejoin="bevel" stroke-miterlimit="10" d="M473.5 81.6l-.3.3-1.1-1.7-1.2-1.3-.3.1-.6.2-.5.3-.4.3-.4.5-.3.5 4.4 3.3.2-.4.3-.4.4-.3.4-.2.5-.2z"/><path fill="#FFF" stroke="#438CBD" stroke-width=".5" stroke-linecap="square" stroke-linejoin="bevel" stroke-miterlimit="10" d="M472.9 86.6l-.3-.3-.1-.4-.1-.4.1-.5.1-.4.2-.5-4.4-3.3-.2.6-.2.5v.5l.1.6.2.4.2.4.4.3 4.2 2.7zm3.3-2.5l-.1-.3-.2-.2-.2-.2-.3-.1-.2-.1v.7l-.1.3-.1.3-.2.3-.2.3-.3.2-.2.2-.3.1-.3.1h-.3l.1.2.1.2.2.1.2.2h.9l.3-.1.3-.2.3-.2.2-.3.2-.3.1-.3.1-.3v-.3zm-116.6-1.6l.2.9-.1 6.5-.1 2.1-.1-3.5-.3-1.5-.2-3.3.1-1.4zm.1 9.4v-2l2.2-.2-.1 2-.5-.3h-.6l-.5.1z"/><path fill="#FFF" stroke="#438CBD" stroke-width=".5" stroke-linecap="square" stroke-linejoin="bevel" stroke-miterlimit="10" d="M361.9 89.7l-.1-6.6-1-.3-1.1-.3.1.9-.1 6.5zm-2.5-1.8l-.1-.7-.1-.2v-.2l-.2.2-.1.3-1.2 3.1.2-.6.4-.5.4-.4.6-.3.2-.1zm1.9 9.7h-.5l-.5-.1-.5-.2-.4-.3-.4-.3-.3-.4-.2-.5-.1-.5v-.5l.1-.5.2-.5.3-.4.4-.3.4-.3.5-.2.5-.1h.5l.5.1.5.2.4.3.4.3.3.4.2.5.1.5v.5l-.1.5-.2.5-.3.4-.4.3-.4.3-.5.2-.5.1zm-1.4-3.9l-.2.2-.2.2-.2.3-.1.3v.7l.1.3.1.3.2.3.3.2.3.2.3.1.4.1h.4l.4-.1.3-.1.3-.2.3-.2.2-.3.1-.3.1-.3v-.5l-.1-.2-.1-.2-.2-.3-.2-.2-.3-.2-.2-.1-.2-.1-.3-.1h-.4l-.4.1-.3.1h-.4z"/><path fill="#FFF" stroke="#438CBD" stroke-width=".5" stroke-linecap="square" stroke-linejoin="bevel" stroke-miterlimit="10" d="M359.6 92v-.6l-.1-2.9-.2.1-.6.3-.4.4-.4.5-.2.6-.1.6v.6l.8 3.8v-.5l.1-.5.2-.4.3-.5.4-.3.4-.3z"/><path fill="#FFF" stroke="#438CBD" stroke-width=".5" stroke-linecap="square" stroke-linejoin="bevel" stroke-miterlimit="10" d="M362.4 88.6l-.5-.2v1.3l-.1 1.6v.4l-.5-.3h-.6l-.5.1-.5.4.1 1 .5-.2.5-.1h.5l.6.1.4.2.5.3.1-4.3z"/><path fill="#FFF" stroke="#438CBD" stroke-width=".5" stroke-linecap="square" stroke-linejoin="bevel" stroke-miterlimit="10" d="M362.1 87l-.2-.4v1.8l.5.2.5.3.4.5.4.5z"/><path fill="#FFF" stroke="#438CBD" stroke-width=".5" stroke-linecap="square" stroke-linejoin="bevel" stroke-miterlimit="10" d="M363.9 90.4l-.2-.5-.4-.5-.4-.5-.1 4.3.4.4.2.4.2.4.1.5v.5l.3-3.8V91zm-2.4 5.5h-1l-.4-.2-.3-.2-.2-.2-.2-.3-.2-.2v.5l.1.3.1.4.2.2.3.3.3.2.3.1.4.1h.3l.4-.1.3-.1.4-.2.2-.3.2-.2.2-.4v-.9l-.1-.2v.2l-.2.3-.2.3-.2.2-.3.2zm94.6-11.5l-.2-.2-1.2 1 4.1 5.7 2-.2z"/><path fill="#FFF" stroke="#438CBD" stroke-width=".5" stroke-linecap="square" stroke-linejoin="bevel" stroke-miterlimit="10" d="M458.8 90.9l2-.2 1 1.8-.6-.3h-.6l-.4.1-.3.4zm-4.4-2.7l-1.5-1.5 1-.9 2.9 2.8-1-.6h-1z"/><path fill="#FFF" stroke="#438CBD" stroke-width=".5" stroke-linecap="square" stroke-linejoin="bevel" stroke-miterlimit="10" d="M455.9 88.1l.3.2.6.3.5.2-1.5-.8z"/><path fill="#FFF" stroke="#438CBD" stroke-width=".5" stroke-linecap="square" stroke-linejoin="bevel" stroke-miterlimit="10" d="M457.3 88.8l-.5-.2-2.9-2.8.8-.6zm-3.1-.5l-.2.2-.2.3-.2.3-.1.3 2.2 3.4.2-.5.4-.6.4-.5.5-.4zm1.5 6.2l-.1-.5v-.6l.1-.6-2.2-3.4-.1.3v.6l.2.3 2.3 4.4zm5.1 4.7l-.3-.3-.3-.3-.2-.4-.1-.4v-.5l.1-.5.2-.5.3-.4.3-.4.4-.3.5-.3.5-.2.5-.1h.5l.4.1.4.2.3.3.3.3.2.4.1.4v.5l-.1.5-.2.5-.3.4-.3.4-.4.3-.4.3-.5.2-.5.1h-.5l-.4-.1-.5-.2zm2.4-.9l.3-.2.2-.3.2-.3.1-.3.1-.3v-.3l-.1-.3-.1-.3-.2-.2-.2-.2-.3-.1h-.6l-.3.1-.4.1-.2.1-.4.3-.2.3-.2.3-.2.4v.9l.1.4.2.2.2.2.3.1.3.1h.3l.3-.1.3-.1.5-.5zm-4.9-8l.3.3-.3-.3z"/><path fill="#FFF" stroke="#438CBD" stroke-width=".5" stroke-linecap="square" stroke-linejoin="bevel" stroke-miterlimit="10" d="M460.8 90.8l1 1.7-.6-.3h-.6l-.4.1-.3.4-1.1-1.8-.5-.6-.6.2-.5.3 4.1 4.3.5-.3.4-.2h1l.4.1.4.1.3.3z"/><path fill="#FFF" stroke="#438CBD" stroke-width=".5" stroke-linecap="square" stroke-linejoin="bevel" stroke-miterlimit="10" d="M457.3 88.9l-1.5-.9h-1l-.3.1-.3.2 3 2.5.5-.3.6-.3zm-.1 1.9l-.5.4-.4.5-.4.6-.2.5 4.4 4 .2-.5.2-.4.4-.4.4-.4z"/><path fill="#FFF" stroke="#438CBD" stroke-width=".5" stroke-linecap="square" stroke-linejoin="bevel" stroke-miterlimit="10" d="M460.2 98.6l-.2-.4v-.9l.1-.5-4.4-4-.1.6v.6l.1.5.2.5.3.4 4.3 3.5zm3.8-2.4l-.1-.3-.2-.2-.2-.2-.4-.2v.9l-.2.4-.1.1-.1.2-.2.3-.3.2-.3.2-.3.1-.4.1h-.4l.1.3.1.3.3.1.3.2h.9l.3-.2.4-.2.2-.2.3-.3.2-.3.1-.3.1-.4v-.3zm-79.6-5.7v.3l1 7.1.1 2-.5-2.6-.5-.8-.7-1.1-1.3-4.7v-.5l1.6.5z"/><path fill="#FFF" stroke="#438CBD" stroke-width=".5" stroke-linecap="square" stroke-linejoin="bevel" stroke-miterlimit="10" d="M386.7 91.2l-2.3-.7v.3l1 7.1 2.2-.2zm-2.7 4.5l-.2-.3-.2-.4v3.2l.5-.5.6-.3.3-.1zm2 3.8l-.5.4-.1-2 2.2-.2.2 2-.6-.3-.6-.1zm-2.4-4.5l-.2.3-.1.3-.1.4-.4 3.9.2-.6.3-.6.3-.5zm3.9 12.2h-.5l-.5-.1-.5-.2-.4-.3-.4-.4-.3-.4-.2-.5-.1-.5v-.5l.1-.5.2-.5.3-.4.4-.4.5-.3.5-.2.5-.1h.5l.5.1.5.2.4.3.4.4.3.4.2.5.1.5v.5l-.1.5-.2.5-.3.4-.4.4-.5.3-.5.2-.5.1zm1-1.2l.3-.3.2-.3.2-.3.1-.3v-.4l-.1-.3-.1-.3-.2-.2-.2-.2-.4-.3-.2-.1-.4-.1h-.4l-.4.1-.4.1-.3.2-.3.3-.2.2-.2.4-.1.3v.4l.1.3.1.3.2.3.3.2.3.2.3.1.4.1h.4l.4-.1.4-.1.2-.2z"/><path fill="#FFF" stroke="#438CBD" stroke-width=".5" stroke-linecap="square" stroke-linejoin="bevel" stroke-miterlimit="10" d="M384.8 103.9l.2-.5.3-.4-1.7-4.8-.3.5-.3.6-.2.6v.6l.1.6.2.6 1.8 4.1-.2-.4-.1-.5v-.5z"/><path fill="#FFF" stroke="#438CBD" stroke-width=".5" stroke-linecap="square" stroke-linejoin="bevel" stroke-miterlimit="10" d="M387.8 99.4v.3l-.6-.3-.6-.1-.6.2-.5.4-.5-2.6-.3.1-.6.3-.5.5 1.7 4.8.5-.4.4-.3.5-.2.6-.1h.5l.6.1zm-.3-2.9l.1.8.8.4.4.5z"/><path fill="#FFF" stroke="#438CBD" stroke-width=".5" stroke-linecap="square" stroke-linejoin="bevel" stroke-miterlimit="10" d="M389.4 99.2l-.3-.5-.3-.5-.4-.5-.8-.4v.4l.2 1.7.6 2.7.4.2.5.3.3.3.3.5.2.4zm-3.9 5.5l.3.2.3.2.3.1.4.1h.4l.3-.1.4-.1.3-.2.3-.3.2-.2.2-.4.1-.3v-.2l.2.2.1.4v.7l-.1.3-.2.3-.2.3-.3.3-.3.2-.3.1-.4.1h-.4l-.4-.1-.3-.1-.3-.2-.3-.2-.2-.3-.1-.4v-.5zm23-43.9l.2.7-1.8.1-3.5-3.8-.1-.8h-.4l-.1.1-.1.2v.1h.2l.1.2.8 3.9-.1.1.6 2.8 1-.8 1.1-.6 1.2-.4 1.2-.1h1.2l1.2.2z"/><path fill="#FFF" stroke="#438CBD" stroke-width=".5" stroke-miterlimit="10" d="M222.8 95.4l1.3-.7v-1.4l57.5-29 1.5.6.7-.4.5.3 20.1 8.8-53.7 39.2z"/><path fill="#FFF" stroke="#438CBD" stroke-width=".5" stroke-miterlimit="10" d="M224.1 94.7l-1.3.7v.8l1.3.8v6l-1.3-.4v.7l1.3.5v16.3l-2.4 1.6-1.1.6-.3-46.5 3.7-1.4.1 18.9zm59.7-30.2l-.7.4 1.5-14.2 1.3-.5-1.6 14.6z"/><path fill="#FFF" stroke="#438CBD" stroke-width=".5" stroke-miterlimit="10" d="M222.7 74l-2.7 1v-1.5l.3.1 5-1.9v-3.3l-1.8-.4-3.5 1.3v-2.1l.4.1 64-22.2-.1.9v.3l-1.2.4-.3 2.2 1.2.2-.1.7v.3l-.8.3-1.4 13.8-57.6 29v-19l-1.4-.2zm13.7-10l-11 4v22.1l10.6-5.2.4-20.9zm.9 20.2l9.2-4.5.8-19.7-9.5 3.4-.5 20.8zm12.8-6.2l7.8-3.8 1.1-18.3-8 2.9-.9 19.2zm8.9-4.3l6.9-3.4 1.3-17.3-7.1 2.6-1.1 18.1zm9.6-4.7l6-2.9 1.5-16.3L270 52l-1.4 17zm6.8-3.4l5.4-2.6 1.6-15.5-5.5 2-1.5 16.1zM220 67.3v2.1l-3.4-.8-1.3.4v-.7l-12-2.9.8 21.5 11.6 3.8-.3-18.3 4.6 1.2v1.5l-2.7-.7-1.1.4.8 50-12.8-5.9-1.1-27.1-10.3-3.8 1.6 26.2-21.1-9.8-4.3-41.9-2.8-.7-.1-.5-.1-.8 1.6.4 1.7-.4-.3-3.3-3.4-.8-.1-.5-.1-1.4L220 67.3zM192.5 83l10.4 3.5-.9-21.4-10.8-2.6 1.3 20.5zm-20.7-6.8l8.6 2.9-1.6-19.6-8.9-2.2 1.9 18.9zm9.6 3.2l9.5 3.1-1.3-20.4-9.7-2.4 1.5 19.7zm-7.5 18.7l8.3 3.6-1.5-17.9-8.6-3 1.8 17.3zm9.4 4.1l9.1 3.9-1.2-18.6-9.4-3.3 1.5 18zm21.8 9.3l11 4.8-.3-20.2-11.5-4 .8 19.4z"/><path fill="#FFF" stroke="#438CBD" stroke-width=".5" stroke-miterlimit="10" d="M215.1 69l5.2 1.3v3.4l-.2-.1-4.7-1.2-.2-.1zm5.2 1.3l5-1.8v3.3l-5 1.9zm1.4 51.4l2.4-1.6v-1.3l1.2-.8 10.1-6.6 1.3-.8 2-1.4 11.6 4.3 39.9-29.2 5.2 1.2-56.2 44z"/><path fill="#FFF" stroke="#438CBD" stroke-width=".5" stroke-miterlimit="10" d="M235.4 111.4l.1-3.4 1.2.5v2.1zm-10-7.1l-.1 13.7-1.2.8v-15zm13.8 25.2l56.2-44-.5 3.8-.8.7.3-2.4-2.4 1.9-3.1 2.4-.3 2.5-.9.8.3-2.6-2.4 2-3.8 3-.3 2.6-1 .9.3-2.7-2.5 2-4.5 3.6-.3 2.8-1.2.9.3-2.8-2.6 2.1-5.6 4.4-.2 3-1.4 1.1.3-3-2.7 2.1-6.5 5.2-.2 3.2-1.6 1.3.2-3.2-2.7 2.2-8.6 6.8-.1 3.3-1.9 1.5zm0 0l-.2 5.4-2.7-1.2.1-3.4-13.1-5.9-2.8-1.3v-.8h.1l1.1-.6z"/><path fill="#FFF" stroke="#438CBD" stroke-width=".5" stroke-miterlimit="10" d="M223.3 124.4l-3.8 2.6-.1-5.2 1.1.5v.8zm14.4-89.9l47.3 4.8-65.1 19.2-55.2-11.1 73-12.9zm43.7 4.9L238.3 35l-68.7 12.4 9.7 1.9 40.2 7.9 54.2-15.5 7.7-2.3zm-116.7 8l55.2 11.1.1 6.9-54.7-12.5z"/><path fill="#FFF" stroke="#438CBD" stroke-width=".5" stroke-miterlimit="10" d="M219.9 58.5L285 39.3l-.4 4.3v.2L220 65.4zm32.2 65.8l-2.5-1 2.7-2.2zm10.7-8.8l-2.4-.9 2.7-2.1zm9.5-7.8l-2.3-.7 2.6-2.1zm8.2-6.6l-2.2-.7 2.5-2zm7.2-5.9l-2.1-.6 2.4-2zm6.4-5.2l-2.1-.5 2.4-1.9z"/><path fill="#FFF" stroke="#438CBD" stroke-width=".5" stroke-miterlimit="10" d="M220 65.4l64.6-21.6v-.2l1.3.2-65.5 22.1-55.7-12.8.6-.2z"/><path fill="#FFF" stroke="#438CBD" stroke-width=".5" stroke-miterlimit="10" d="M220.4 65.9l65.5-22.1-.1.9-1.4.5-64 22.2z"/><path fill="#FFF" stroke="#438CBD" stroke-width=".5" stroke-miterlimit="10" d="M220.4 65.9v1.5l-.4-.1-54.5-12.9-.7-.1-.1-1.2zm3.7 37.1v-6l1.6 1-.3.2v5.3zm11.4 4.2v-3l1.3.8v2.7zm4 1.5l1.6-1 6.1 3.9zm-20.1 13.1l.1 5.2-2.5-1.1v-1.2l-.8-49.9 4.1 1 .3 46.5h-.1zm63.7-75l1.2-.4v-.3l2.2.3-1.9.6z"/><path fill="#FFF" stroke="#438CBD" stroke-width=".5" stroke-miterlimit="10" d="M284.6 47l1.9-.6-.3 2.1-1.9.8zm-1.5 3.5l.8-.3v-.3l2 .3-1.3.5zm-80 41.2l1.1 27.1-9.9-4.6-1.5-26.2zm-37.4-35.3l3.3.8-1.6.4-4.6-1.2 2.8-.6zm1.7 1.2l.3 3.3-1.6-.4-2.9-.8-.4-3.3zm-1.1 4.2l2.7.7-1.6.5-3.8-1.1 2.6-.6z"/><path fill="#FFF" stroke="#438CBD" stroke-width=".5" stroke-miterlimit="10" d="M171.7 105.1l-3.5-1.6-4.6-41.6 3.8 1.1zm66.5-67.5l35.4 4-54.1 15.5-40.2-7.9z"/><path fill="#FFF" stroke="#438CBD" stroke-width=".5" stroke-miterlimit="10" d="M238.2 37.6l-58.9 11.6-9.7-1.9 68.6-12.4zm-15.4 65.7v-.8l1.2.5 1.3.5 10.2 3.7 1.2.5 2.8 1 7.7 2.8 3.1 2-11.6-4.3-2-.8-1.3-.4-10.1-3.8-1.3-.5z"/><path fill="#FFF" stroke="#438CBD" stroke-width=".5" stroke-miterlimit="10" d="M222.9 96.3v-.8l27.8 17.4-3.4-1.2-6.1-3.9-4.3-2.7-1.3-.8-9.8-6.2-1.6-1z"/></svg>