<svg xmlns="http://www.w3.org/2000/svg" viewBox="0 0 187.4 179"><path fill="#E1F0FA" stroke="#438CBD" stroke-linecap="round" stroke-linejoin="round" stroke-miterlimit="10" d="M95.3 144l-.3 24.8-82.2-53.6-2.6-20.7z"/><path fill="#B4D8F0" stroke="#438CBD" stroke-linecap="round" stroke-linejoin="round" stroke-miterlimit="10" d="M177.2 94.4l-2.9 20.7L95 168.8l.3-24.8z"/><path fill="#9BC1DA" stroke="#438CBD" stroke-linecap="round" stroke-linejoin="round" stroke-miterlimit="10" d="M177.2 94.4L95.3 144l-85-49.5 86.4-28.7 80.5 28.6zm-98.7-81l14.9-3.2 15 3.1-14.9 3.5z"/><path fill="#E1F0FA" stroke="#438CBD" stroke-linecap="round" stroke-linejoin="round" stroke-miterlimit="10" d="M78.5 13.4l15 3.4v5.6l-10.8-2.6-4.1 1z"/><path fill="#B4D8F0" stroke="#438CBD" stroke-linecap="round" stroke-linejoin="round" stroke-miterlimit="10" d="M93.5 16.8l14.9-3.5-.4 16.8-14.6 4.1.1-11.8z"/><path fill="#9BC1DA" stroke="#438CBD" stroke-linecap="round" stroke-linejoin="round" stroke-miterlimit="10" d="M108 30.1l1.5-.5 17.4 4.4-.1 1.6-17.1 5.4-16.3-4.6v-2.2z"/><path fill="#E1F0FA" stroke="#438CBD" stroke-linecap="round" stroke-linejoin="round" stroke-miterlimit="10" d="M93.4 36.4l16.3 4.6-.6 21-9.8-3.3-6 2.2z"/><path fill="#B4D8F0" stroke="#438CBD" stroke-linecap="round" stroke-linejoin="round" stroke-miterlimit="10" d="M115 84.3l-3.6-1.4.7-19.9-3-1 .6-21 17.1-5.4-.8 14.5-9.8 3.6z"/><path fill="#9BC1DA" stroke="#438CBD" stroke-linecap="round" stroke-linejoin="round" stroke-miterlimit="10" d="M138 17.6l13.8 2.8-10.3 3-13.9-3z"/><path fill="#E1F0FA" stroke="#438CBD" stroke-linecap="round" stroke-linejoin="round" stroke-miterlimit="10" d="M126.9 34l.7-13.6 13.9 3-2.2 30.1-12.5-3.7-.8.3.8-14.5z"/><path fill="#B4D8F0" stroke="#438CBD" stroke-linecap="round" stroke-linejoin="round" stroke-miterlimit="10" d="M150.4 36.2l-4 1.4-1.5 17.5-5.6-1.6 2.2-30.1 10.3-3zM162.1 89l-.6 5.3-3.3 1.8 2.3-20.9-5.7-1.9 3.3-32.8 10-3.7z"/><path fill="#9BC1DA" stroke="#438CBD" stroke-linecap="round" stroke-linejoin="round" stroke-miterlimit="10" d="M168.1 36.8l-10 3.7-11.7-2.9 4-1.4 6.1-2.1z"/><path fill="#E1F0FA" stroke="#438CBD" stroke-linecap="round" stroke-linejoin="round" stroke-miterlimit="10" d="M144.9 55.1l1.5-17.5 11.7 2.9-3.3 32.8-6.5-2.1-4.4 2 1.5-17.9z"/><path fill="#B4D8F0" stroke="#438CBD" stroke-linecap="round" stroke-linejoin="round" stroke-miterlimit="10" d="M122.5 87.3l-.7 13.2-.2 4.1-7.8 4.2.7-17.7z"/><path fill="#E1F0FA" stroke="#438CBD" stroke-linecap="round" stroke-linejoin="round" stroke-miterlimit="10" d="M103.2 86.5l11.3 4.6-.7 17.7-11-5.1.2-5.3z"/><path fill="#9BC1DA" stroke="#438CBD" stroke-linecap="round" stroke-linejoin="round" stroke-miterlimit="10" d="M115 84.3l7.5 3-8 3.8-11.3-4.6 8.1-3.7.1.1z"/><path fill="#E1F0FA" stroke="#438CBD" stroke-linecap="round" stroke-linejoin="round" stroke-miterlimit="10" d="M133.2 85.7l-6.7 3.3-.8 13.1-3.9-1.6.7-13.2-7.5-3 1.2-30.6 18.8 5.8z"/><path fill="#9BC1DA" stroke="#438CBD" stroke-linecap="round" stroke-linejoin="round" stroke-miterlimit="10" d="M126 50.1l.8-.3 12.5 3.7 5.6 1.6.5.2-10.4 4.2-18.8-5.8z"/><path fill="#B4D8F0" stroke="#438CBD" stroke-linecap="round" stroke-linejoin="round" stroke-miterlimit="10" d="M143.9 73.2l-2.4 1.1-.8 9.8-2.4-.9-5.1 2.5 1.8-26.2 10.4-4.2z"/><path fill="#E1F0FA" stroke="#438CBD" stroke-linecap="round" stroke-linejoin="round" stroke-miterlimit="10" d="M125.2 110.9l.5-8.8.8-13.1 9.4 3.8-1.6 22.8-8.5-3.9z"/><path fill="#B4D8F0" stroke="#438CBD" stroke-linecap="round" stroke-linejoin="round" stroke-miterlimit="10" d="M134.3 115.6l1.6-22.8 11.8-6.1-1.7 18.9-.3 3.2z"/><path fill="#9BC1DA" stroke="#438CBD" stroke-linecap="round" stroke-linejoin="round" stroke-miterlimit="10" d="M133.2 85.7l5.1-2.5 2.4.9 7 2.6-11.8 6.1-9.4-3.8z"/><path fill="#B4D8F0" stroke="#438CBD" stroke-linecap="round" stroke-linejoin="round" stroke-miterlimit="10" d="M150.9 107.7l2.9-29.1 6.7-3.4-2.3 20.9-.8 7.7z"/><path fill="#E1F0FA" stroke="#438CBD" stroke-linecap="round" stroke-linejoin="round" stroke-miterlimit="10" d="M147.7 86.7l-7-2.6.8-9.8 12.3 4.3-2.9 29.1-4.9-2.1z"/><path fill="#9BC1DA" stroke="#438CBD" stroke-linecap="round" stroke-linejoin="round" stroke-miterlimit="10" d="M143.9 73.2l4.4-2 6.5 2.1 5.7 1.9-6.7 3.4-12.3-4.3zM52.6 29.4l19-4.6.2 5.7-8.3 2.1z"/><path fill="#B4D8F0" stroke="#438CBD" stroke-linecap="round" stroke-linejoin="round" stroke-miterlimit="10" d="M63.5 32.6l8.3-2.1.6 26.1-5.8-2.1-2.2.7z"/><path fill="#E1F0FA" stroke="#438CBD" stroke-linecap="round" stroke-linejoin="round" stroke-miterlimit="10" d="M64.4 55.2l-9 2.8-.7-13.3-1.3-.4-.8-14.9 10.9 3.2z"/><path fill="#B4D8F0" stroke="#438CBD" stroke-linecap="round" stroke-linejoin="round" stroke-miterlimit="10" d="M112.1 63l-.7 19.9-.1-.1-8.1 3.7-.2 11.9-8.6 4.2.3-32.8z"/><path fill="#E1F0FA" stroke="#438CBD" stroke-linecap="round" stroke-linejoin="round" stroke-miterlimit="10" d="M82.2 96.9v-4.7L81.8 65l12.9 4.8-.3 32.8z"/><path fill="#9BC1DA" stroke="#438CBD" stroke-linecap="round" stroke-linejoin="round" stroke-miterlimit="10" d="M109.1 62l3 1-17.4 6.8L81.8 65l.9-.3 10.6-3.8 6-2.2z"/><path fill="#E1F0FA" stroke="#438CBD" stroke-linecap="round" stroke-linejoin="round" stroke-miterlimit="10" d="M71.5 22.4l10.8 2.8.4 39.5-.9.3.4 27.2-1.7-.7v-.4l-1.9-.8-.5-31.7-5.7-2-.6-26.1-.2-5.7z"/><path fill="#9BC1DA" stroke="#438CBD" stroke-linecap="round" stroke-linejoin="round" stroke-miterlimit="10" d="M82.7 19.8l10.8 2.6-11.2 2.8-10.8-2.8 7.1-1.6z"/><path fill="#B4D8F0" stroke="#438CBD" stroke-linecap="round" stroke-linejoin="round" stroke-miterlimit="10" d="M93.4 34.2v2.2l-.1 24.5-10.6 3.8-.4-39.5 11.2-2.8zm-12.8 67.5l-10.2 4.7-.3-10.8 10.4-4.5v.4z"/><path fill="#E1F0FA" stroke="#438CBD" stroke-linecap="round" stroke-linejoin="round" stroke-miterlimit="10" d="M68 96.7L64.3 95l-.1-2.2 5.9 2.8.3 10.8-2.1-1z"/><path fill="#9BC1DA" stroke="#438CBD" stroke-linecap="round" stroke-linejoin="round" stroke-miterlimit="10" d="M80.5 91.1l-10.4 4.5-5.9-2.8 10.4-4.3 4 1.8z"/><path fill="#E1F0FA" stroke="#438CBD" stroke-linecap="round" stroke-linejoin="round" stroke-miterlimit="10" d="M57.2 116.5l-9.5-5.4-.2-3.1-.8-11.2 9.7 5z"/><path fill="#B4D8F0" stroke="#438CBD" stroke-linecap="round" stroke-linejoin="round" stroke-miterlimit="10" d="M64.6 111.8l-2.3 2.2-5.1 2.5-.8-14.7L68 96.7l.3 8.7.2 5.7z"/><path fill="#9BC1DA" stroke="#438CBD" stroke-linecap="round" stroke-linejoin="round" stroke-miterlimit="10" d="M68 96.7l-11.6 5.1-9.7-5 8.6-3.5 3-1.3 1.8.9 4.2 2.1z"/><path fill="#B4D8F0" stroke="#438CBD" stroke-linecap="round" stroke-linejoin="round" stroke-miterlimit="10" d="M78.6 90.3l-4-1.8-10.4 4.3.1 2.2-4.2-2.1-1.3-27.8 19.3-6.5z"/><path fill="#9BC1DA" stroke="#438CBD" stroke-linecap="round" stroke-linejoin="round" stroke-miterlimit="10" d="M72.4 56.6l5.7 2-19.3 6.5-11.4-4.5 8-2.6 9-2.8 2.2-.7z"/><path fill="#E1F0FA" stroke="#438CBD" stroke-linecap="round" stroke-linejoin="round" stroke-miterlimit="10" d="M48.6 78.7l-1.2-18.1 11.4 4.5 1.3 27.8-1.8-.9-3 1.3-.7-11.9z"/><path fill="#B4D8F0" stroke="#438CBD" stroke-linecap="round" stroke-linejoin="round" stroke-miterlimit="10" d="M43.4 76.3l-2-27.8 13.3-3.8.7 13.3-8 2.6 1.2 18.1z"/><path fill="#9BC1DA" stroke="#438CBD" stroke-linecap="round" stroke-linejoin="round" stroke-miterlimit="10" d="M31.3 44.7l13.2-3.5 8.9 3.1 1.3.4-13.3 3.8z"/><path fill="#E1F0FA" stroke="#438CBD" stroke-linecap="round" stroke-linejoin="round" stroke-miterlimit="10" d="M33.1 65.5l-1.8-20.8 10.1 3.8 2 27.8-3.4-1.6-2.4.9-.7-8.5z"/><path fill="#B4D8F0" stroke="#438CBD" stroke-linecap="round" stroke-linejoin="round" stroke-miterlimit="10" d="M22.9 71.7l14-4.6.7 8.5-10.9 3.8L28.6 99l-2.7 1.1z"/><path fill="#E1F0FA" stroke="#438CBD" stroke-linecap="round" stroke-linejoin="round" stroke-miterlimit="10" d="M25.9 100.1l-9.3-5.2-.3-2.6-2.9-25.2 9.5 4.6z"/><path fill="#9BC1DA" stroke="#438CBD" stroke-linecap="round" stroke-linejoin="round" stroke-miterlimit="10" d="M13.4 67.1l13.8-4.2 5.9 2.6 3.8 1.6-14 4.6z"/><path fill="#B4D8F0" stroke="#438CBD" stroke-linecap="round" stroke-linejoin="round" stroke-miterlimit="10" d="M41.1 86.5l13.5-5.1.7 11.9-8.6 3.5.8 11.2-4.6 2.1z"/><path fill="#E1F0FA" stroke="#438CBD" stroke-linecap="round" stroke-linejoin="round" stroke-miterlimit="10" d="M42.9 110.1l-14-8-.3-3.1-1.9-19.6 14.4 7.1z"/><path fill="#9BC1DA" stroke="#438CBD" stroke-linecap="round" stroke-linejoin="round" stroke-miterlimit="10" d="M54.6 81.4l-13.5 5.1-14.4-7.1 10.9-3.8 2.4-.9 3.4 1.6 5.2 2.4z"/><path fill="#DFEEF8" stroke="#438CBD" stroke-linecap="round" stroke-linejoin="round" stroke-miterlimit="10" d="M129.2 116.2l-.3 4.3-9.5 1.5.2-4.4z"/><path fill="#CDEBFF" stroke="#438CBD" stroke-linecap="round" stroke-linejoin="round" stroke-miterlimit="10" d="M123.6 113.2l5.6 3-9.6 1.4z"/><path fill="#628297" stroke="#438CBD" stroke-linecap="round" stroke-linejoin="round" stroke-miterlimit="10" d="M112.4 117.1l.2-4.3.9-1.1.8 3.6-.2 4.4z"/><path fill="#6A899E" stroke="#438CBD" stroke-linecap="round" stroke-linejoin="round" stroke-miterlimit="10" d="M125.8 111.7l3.4 4.5-5.6-3-2-2.7-2.1-2.8 3.7.6 2 2.6z"/><path fill="#96B7CD" stroke="#438CBD" stroke-linecap="round" stroke-linejoin="round" stroke-miterlimit="10" d="M121.6 110.5l2 2.7-4 4.4-2-2.8z"/><path fill="#CDEBFF" stroke="#438CBD" stroke-linecap="round" stroke-linejoin="round" stroke-miterlimit="10" d="M113.9 111.6l1.4-.2 6.3-.9-4 4.3-3.3.5-.8-3.6z"/><path fill="#628297" stroke="#438CBD" stroke-linecap="round" stroke-linejoin="round" stroke-miterlimit="10" d="M119.6 117.6l-.2 4.4-2-2.8.2-4.4z"/><path fill="#DFEEF8" stroke="#438CBD" stroke-linecap="round" stroke-linejoin="round" stroke-miterlimit="10" d="M114.1 119.7l.2-4.4 3.3-.5-.2 4.4z"/><path fill="#96B7CD" stroke="#438CBD" stroke-linecap="round" stroke-linejoin="round" stroke-miterlimit="10" d="M114 109.6l5.5-1.9 2.1 2.8-6.3.9z"/><path fill="#628297" stroke="#438CBD" stroke-linecap="round" stroke-linejoin="round" stroke-miterlimit="10" d="M113.9 111.6l.1-2 1.3 1.8z"/><path fill="#799AB0" stroke="#438CBD" stroke-linecap="round" stroke-linejoin="round" stroke-miterlimit="10" d="M68.6 122.7l-.2-4.9 4.2-4.2.1 4.8z"/><path fill="#9EC0D6" stroke="#438CBD" stroke-linecap="round" stroke-linejoin="round" stroke-miterlimit="10" d="M68.4 117.8l-4.1-2.5 4.2-4.2 4.1 2.5z"/><path fill="#DFEEF8" stroke="#438CBD" stroke-linecap="round" stroke-linejoin="round" stroke-miterlimit="10" d="M60.6 120.7l-.2-4.8 3.9-.6 4.1 2.5.2 4.9z"/><path fill="#69889D" stroke="#438CBD" stroke-linecap="round" stroke-linejoin="round" stroke-miterlimit="10" d="M68.5 111.1l-4.2 4.2-3.9.6 1.9-1.9 2.3-2.2z"/><path fill="#E1F0FA" stroke="#438CBD" stroke-linecap="round" stroke-linejoin="round" stroke-miterlimit="10" d="M101.3 126.9l.1-4.9 3.6.1 3.5 3.5-.2 5z"/><path fill="#B4D8F0" stroke="#438CBD" stroke-linecap="round" stroke-linejoin="round" stroke-miterlimit="10" d="M108.5 125.6l6.2-3.6-.2 4.9-6.2 3.7z"/><path fill="#D1DEE6" stroke="#438CBD" stroke-linecap="round" stroke-linejoin="round" stroke-miterlimit="10" d="M108.5 125.6l-3.5-3.5 6.2-3.5 3.5 3.4z"/><path fill="#5B7688" stroke="#438CBD" stroke-linecap="round" stroke-linejoin="round" stroke-miterlimit="10" d="M111.2 118.6l-6.2 3.5-3.6-.1 6.3-3.5z"/><path fill="#E1F0FA" stroke="#438CBD" stroke-linecap="round" stroke-linejoin="round" stroke-miterlimit="10" d="M82.4 126.5l-7.1-3.9-.1-4.4 7.2 3.9z"/><path fill="#B4D8F0" stroke="#438CBD" stroke-linecap="round" stroke-linejoin="round" stroke-miterlimit="10" d="M92.9 119.3l-1.8-1.5-.3-.1 3.5-1.8-.1 4.3-1.3.8z"/><path fill="#CDEBFF" stroke="#438CBD" stroke-linecap="round" stroke-linejoin="round" stroke-miterlimit="10" d="M94.3 115.9l-3.5 1.8-6-3.1 4-2z"/><path fill="#D2EDFF" stroke="#438CBD" stroke-linecap="round" stroke-linejoin="round" stroke-miterlimit="10" d="M80.4 116.8l2 5.3-7.2-3.9z"/><path fill="#B4D8F0" stroke="#438CBD" stroke-linecap="round" stroke-linejoin="round" stroke-miterlimit="10" d="M82.4 126.5v-4.4l4.2-2.2.1 4.4z"/><path fill="#E1F0FA" stroke="#438CBD" stroke-linecap="round" stroke-linejoin="round" stroke-miterlimit="10" d="M86.7 124.3l-.1-4.4 2.6 1.3v4.5z"/><path fill="#CDEBFF" stroke="#438CBD" stroke-linecap="round" stroke-linejoin="round" stroke-miterlimit="10" d="M86.6 119.9l-4.2 2.2-2-5.3 4.4-2.2z"/><path fill="#B4D8F0" stroke="#438CBD" stroke-linecap="round" stroke-linejoin="round" stroke-miterlimit="10" d="M92.9 121v2.7l-3.7 2v-4.5l1.9-3.4 1.8 1.5z"/><path fill="#DFEEF8" stroke="#438CBD" stroke-linecap="round" stroke-linejoin="round" stroke-miterlimit="10" d="M84.8 114.6l6 3.1.3.1-1.9 3.4-2.6-1.3z"/><path fill="#496578" stroke="#438CBD" stroke-linecap="round" stroke-linejoin="round" stroke-miterlimit="10" d="M84.8 114.6l-4.4 2.2-5.2 1.4 10.3-5.2 1.6-.8.5.1 1.2.3z"/><path fill="#DFEEF8" stroke="#438CBD" stroke-linecap="round" stroke-linejoin="round" stroke-miterlimit="10" d="M85.5 113l-9.1.1-.1-4.7h11.3v3.9l-.5-.1z"/><path fill="#C7E5F9" stroke="#438CBD" stroke-linecap="round" stroke-linejoin="round" stroke-miterlimit="10" d="M83.8 105.3l3.8 3.1H76.3l1.7-3.1h2.2z"/><path fill="#80A1B7" stroke="#438CBD" stroke-linecap="round" stroke-linejoin="round" stroke-miterlimit="10" d="M87.6 102.6v5.8l-3.8-3.1.1-3.2z"/><path fill="#80A1B7" stroke="#438CBD" stroke-linecap="round" stroke-linejoin="round" stroke-miterlimit="10" d="M83.9 102.1l-.1 3.2h-3.6l.1-2.7z"/><path fill="#6E8DA2" stroke="#438CBD" stroke-linecap="round" stroke-linejoin="round" stroke-miterlimit="10" d="M78 105.3l-1.7 3.1.2-2.9z"/><path fill="#E1F0FA" stroke="#438CBD" stroke-linecap="round" stroke-linejoin="round" stroke-miterlimit="10" d="M98.8 109.6l-2.6 1.4v2l-1.9-.9v-4.6z"/><path fill="#445F71" stroke="#438CBD" stroke-linecap="round" stroke-linejoin="round" stroke-miterlimit="10" d="M96.2 111l2.6-1.4 4.9-1.8-4.1 2z"/><path fill="#CDEBFF" stroke="#438CBD" stroke-linecap="round" stroke-linejoin="round" stroke-miterlimit="10" d="M100.7 113.2l-4.5-2.2 3.4-1.2zm3-5.4l-4.9 1.8-4.5-2.1 4.4-2.1z"/><path fill="#E1F0FA" stroke="#438CBD" stroke-linecap="round" stroke-linejoin="round" stroke-miterlimit="10" d="M100.6 117.9l-4.5-2.3.1-2.6v-2l4.5 2.2z"/><path fill="#B4D8F0" stroke="#438CBD" stroke-linecap="round" stroke-linejoin="round" stroke-miterlimit="10" d="M108.3 113.8l-7.7 4.1.1-4.7 7.8-4.1z"/><path fill="#546D7E" stroke="#438CBD" stroke-linecap="round" stroke-linejoin="round" stroke-miterlimit="10" d="M99.5 104.9l9 4.2-4.8-1.3-5-2.4z"/><path fill="#B5E1FF" stroke="#438CBD" stroke-linecap="round" stroke-linejoin="round" stroke-miterlimit="10" d="M103.7 107.8l4.8 1.3-7.8 4.1-1.1-3.4z"/><path fill="#425E70" stroke="#438CBD" stroke-linecap="round" stroke-linejoin="round" stroke-miterlimit="10" d="M104.3 129.3l-3.6-1.2-4.8-2.5-.7-1.1z"/><path fill="#E1F0FA" stroke="#438CBD" stroke-linecap="round" stroke-linejoin="round" stroke-miterlimit="10" d="M91.7 138.2l-6-3.5v-5l6 3.4z"/><path fill="#506C7F" stroke="#438CBD" stroke-linecap="round" stroke-linejoin="round" stroke-miterlimit="10" d="M85.7 129.7l9.5-5.2.7 1.1-5.3 2.9z"/><path fill="#F2F9FE" stroke="#438CBD" stroke-linecap="round" stroke-linejoin="round" stroke-miterlimit="10" d="M85.7 129.7l4.9-1.2 1.1 4.6z"/><path fill="#B4D8F0" stroke="#438CBD" stroke-linecap="round" stroke-linejoin="round" stroke-miterlimit="10" d="M91.7 138.2v-5.1l4.9-2.8-.1 5.1z"/><path fill="#E1F0FA" stroke="#438CBD" stroke-linecap="round" stroke-linejoin="round" stroke-miterlimit="10" d="M96.5 135.4l.1-5.1 3 1.7-.1 5z"/><path fill="#CDEBFF" stroke="#438CBD" stroke-linecap="round" stroke-linejoin="round" stroke-miterlimit="10" d="M96.6 130.3l-4.9 2.8-1.1-4.6 5.3-2.9z"/><path fill="#B4D8F0" stroke="#438CBD" stroke-linecap="round" stroke-linejoin="round" stroke-miterlimit="10" d="M99.5 137l.1-5 4.7-2.7-.1 5z"/><path fill="#CDEBFF" stroke="#438CBD" stroke-linecap="round" stroke-linejoin="round" stroke-miterlimit="10" d="M99.6 132l1.1-3.9 3.6 1.2z"/><path fill="#E9F2F8" stroke="#438CBD" stroke-linecap="round" stroke-linejoin="round" stroke-miterlimit="10" d="M99.6 132l-3-1.7-.7-4.7 4.8 2.5z"/></svg>