<svg xmlns="http://www.w3.org/2000/svg" xmlns:xlink="http://www.w3.org/1999/xlink" viewBox="212.9 216.6 83.4 78.7"><path d="M231.476 248.38c0 .03-.032.063-.096.063-.033.032-.065.032-.322-.064-.354-.13-.644-.23-1.674-.49.515.13-2.478-.65-1.93-.52.16.16.353.32.514.45.547.48.58.55.547.74-.032.1-.193.22-.258.19-.032 0-.354-.32-.708-.65-.33-.32-.74-.64-.74-.71-.04-.03-.07-.13-.07-.19-.07-.13-.04-.16 0-.71.03-.2.03-.39.06-.58.03-.03.06-.07.06-.13.03-.1.09-.13.19-.16.03-.04.45-.1.87-.17.83-.13.96-.06 1.03.03.09.06.06.22 0 .29-.04.06-.2.06-.71.13-.2.03-.42.06-.61.09.16.03 1.86.48 2.02.51 1.57.42 1.99.61 2.03.68.06.06.09.22.06.29-.04.09-.1.16-.23.16s-.2-.1-1.26-.39c-.36-.1-.81-.23-1.16-.33 0 .064-.03.13-.03.193.38.1.87.227 1.25.356.58.16.9.29 1.06.36.16.066.16.1.16.13-.07.16-.03.29-.1.387zm-5.31-2.383c.257.032.45.258.42.483-.034.225-.228.386-.485.354-.25-.032-.45-.225-.41-.483 0-.19.23-.38.48-.35z" fill="#438CBD"/><defs><circle id="a" cx="254.1" cy="253.9" r="25.1"/></defs><use xlink:href="#a" overflow="visible" fill="#89CBE8"/><clipPath id="b"><use xlink:href="#a" overflow="visible"/></clipPath><path clip-path="url(#b)" fill="#FFF" d="M269.9 257.4c1.2 1.4 1.5 3.4 1.9 5.2.4 1.8 1.1 3.8 2.7 4.8 1.4.8 3.2.7 4.6-.1 1.4-.8 2.5-2.1 3.3-3.4 2.1-3.5 2.8-7.7 2.6-11.8-.1-4.1-1-8.1-1.9-12.1-.4-2-.9-4.1-2.2-5.7-1.2-1.6-3-2.6-4.9-3.1s-3.9-.5-5.9-.4c-4.1.2-8.2 1-12.4.9-1.6-.1-3.2-.3-4.9-.2-1.6.1-3.3.5-4.5 1.6-1.2 1.1-1.8 2.9-1.1 4.4 2.9 3.7 7.8 5.7 12.4 5.1 1.4-.2 2.8-.6 4.3-.4s2.8 1.5 2.5 2.9c-.4 1.9-3.2 2.2-4.3 3.8-.6.9-.5 2-.1 3 .4.9 1.2 1.6 2.1 2.2 2 1.1 4.3 1.7 5.8 3.3zm-14.3 9.3c1.4.1 2 1.9 3.2 2.6 1.3.9 3.1.3 4.6-.2 1.4-.5 3-1.2 3.6-2.5.1-1.5 1.1-4-.9-6-1.3-.8-2.7-1.5-4.3-2-2-.3-4.2.3-5.8 1.5-1.7 1.2-2.8 3.1-3.2 5.1-.1.4-.1 1 .2 1.3.7.7 1.7.2 2.6.2z"/><path clip-path="url(#b)" fill="#FFF" d="M251.4 280.9c1.5-.9 2.1-2.9 1.3-4.5-1.1-1.1-3.1-.3-4.4-1.1-.7-.5-1.1-1.3-1.3-2.2-.4-1.9 0-3.8.2-5.8.2-1.9 0-4-1.2-5.5-1-1.2-2.6-1.9-3.6-3-1.1-1.3-1.5-3.2-1-4.9.4-1.7 1.6-3.1 3-4 1.1-3.7-2.8-7.2-2.5-11 .3-3.9 5.1-6.7 4.7-10.7-2.9-2.9-7.5-3.7-11.5-2.5-4 1.2-7.2 4.1-9.5 7.5-2.3 3.4-3.7 7.4-4.8 11.3-1.6 5.9-2.7 12.1-2.2 18.2.4 4.8 1.9 9.9 5.7 12.9 1.7 1.3 3.7 2.2 5.7 3 5.8 2.4 12.1 4.8 18.2 3.3 1.1-.3 2.2-.5 3.2-1z"/><use xlink:href="#a" overflow="visible" fill="none" stroke="#89CBE8" stroke-miterlimit="10"/><path d="M269.266 236.373v-.2c0-.2.1-.2 2.2-2.5.4-.4 1.8-1.9 2.2-2.3-.3.1-.6.2-.8.3-.9.4-1 .4-1.1.2-.1-.1 0-.4 0-.5.1-.1 2.3-1 2.5-1 .1 0 .1 0 .2.1.1 0 .2.1.6.7.2.2.3.4.5.7v.6c0 .1-.3.7-.5 1.3-.5 1.3-.6 1.4-.8 1.4-.2 0-.3-.1-.3-.3 0-.1.1-.3.4-1.1.1-.3.3-.6.4-.9-.6.6-1.6 1.6-2.2 2.3-1.7 1.8-2.2 2.3-2.3 2.3-.1 0-.3 0-.3-.1-.1-.1-.1-.3 0-.4 0-.1.3-.3 1.4-1.5.4-.4.9-1 1.3-1.3l-.2-.2c-.4.4-1 1-1.4 1.5-1.3 1.4-1.4 1.4-1.5 1.4-.1-.2-.2-.3-.3-.5zm6.7-5.3c-.3.3-.6.3-.8 0-.2-.3-.1-.7.1-1 .3-.3.6-.3.8 0 .2.3.2.8-.1 1zm5.617 22.512l.1-.1c.1-.1.2-.1 3.2-.1h3.1c-.3-.1-.6-.2-.8-.3-.9-.3-1-.4-1-.5 0-.1.3-.2.4-.2.1 0 2.3.7 2.5.9 0 0 .1.1.1.2.1.1.1.1 0 .8v.7c0 .1-.1.1-.1.2l-.2.2s-.6.2-1.2.5c-1.2.5-1.3.5-1.5.4-.1-.1-.1-.3 0-.4 0-.1.2-.2 1-.5l.9-.3h-3c-2.4 0-3.1 0-3.1-.1-.1 0-.2-.2-.2-.3 0-.1.1-.2.3-.3.1 0 .4-.1 2 0h1.8v-.2h-1.9c-1.9 0-1.9 0-2-.1-.4-.2-.5-.4-.4-.5zm8.3 1.2c-.4 0-.7-.3-.6-.5 0-.3.3-.5.7-.5.4 0 .6.3.6.6 0 .2-.3.4-.7.4zM252.6 235.67s-.1 0-.1-.1c-.1-.1-.1-.1-.2-2.7 0-.8-.1-1.7-.1-2.5-.1.3-.3.5-.4.8-.4.9-.4.9-.7 1-.1 0-.4-.1-.4-.2 0-.2 1-2.2 1.2-2.3 0 0 .1-.1.2-.1.2-.1.2-.1 1.1-.2.3 0 .6-.1.9-.1.1 0 .1 0 .2.1.2 0 .3.1.3.2.1 0 .3.5.6 1 .6 1 .6 1.1.4 1.2-.1.1-.4.1-.5 0-.1 0-.2-.2-.5-.8-.1-.2-.3-.5-.4-.7v2.5c0 2 0 2.6-.1 2.7 0 .1-.2.2-.3.2-.1 0-.3-.1-.3-.2s0-.3-.1-1.7v-1.5h-.3v1.6c0 1.6 0 1.6-.1 1.7-.1.1-.2.2-.4.1zm1.2-7.1c0 .3-.3.6-.6.6-.4 0-.7-.2-.7-.5s.3-.5.6-.6c.4 0 .7.2.7.5zm-12.544 2.38h-.2c-.1-.1-.1-.1-1.6-3-.5-.9-1-2-1.5-2.9 0 .3 0 .7.1 1 .1 1.1.1 1.2-.1 1.3-.1.1-.4-.1-.4-.2-.1-.1-.3-2.8-.3-3 0-.1.1-.2.1-.2.1-.2.1-.2.8-.5.2-.1.5-.2.7-.4h.2c.1 0 .3 0 .4.1.1 0 .6.5 1.1.9 1.1.9 1.1 1 1.1 1.2 0 .2-.2.3-.4.2-.1 0-.3-.2-.9-.7-.2-.2-.5-.4-.7-.7.5.9 1 2 1.5 2.9 1.1 2.3 1.5 2.9 1.4 3 0 .1-.1.3-.2.3-.1.1-.3 0-.4-.1-.1-.1-.2-.3-1-1.8-.3-.6-.6-1.2-.9-1.7l-.2.1c.3.6.6 1.2.9 1.9.9 1.8.9 1.8.8 1.9-.1.2-.2.3-.3.4zm-3-8.5c.2.3.1.7-.2.9-.3.1-.7 0-.8-.4-.2-.3-.1-.7.2-.9.2-.2.6 0 .8.4zm30.58 27.166s0-.1.1-.2.1-.1 2.4-.7c1.2-.3 1-.3 2.2-.5l-.6-.3c-.7-.3-.8-.3-.8-.5 0-.1.1-.4.2-.4.2 0 1.8.6 1.9.7 0 0 .1.1.1.2.1.1.1.2 0 1.1v.9c0 .1 0 .1-.1.2 0 .2-.1.3-.2.3 0 .1-.5.4-.9.8-.9.8-1 .8-1.1.7-.1-.1-.1-.3 0-.5 0-.1.2-.2.7-.7l.6-.6c-4.3.9 2.1-.5-2.2.5-1.8.4-2.3.5-2.3.5-.1 0-.1-.2-.2-.3 0-.1.1-.3.2-.4.1-.1.3-.1 1.5-.4.4-.1.9-.2 1.3-.3v-.3c-.4.1-1 .2-1.4.3-1.4.3-1.4.4-1.5.3.1 0 .1-.1.1-.4zm6.2 0c-.3.1-.5-.2-.5-.6 0-.4.2-.7.5-.8.3-.1.5.2.5.6 0 .4-.3.8-.5.8zM259.91 261.36c0-.048.023-.072.023-.097.025-.05.05-.05 1.006 1.13.17.22.78.98.95 1.2-.1-.27-.17-.514-.27-.784-.32-.84-.32-.89-.32-1.16 0-.15.07-.27.1-.22.05.05.76 2.03.81 2.25.02.07.02.19.05.29.02.19.02.24.02 1.08v.9c0 .05-.03.1-.03.17-.03.12-.05.19-.08.19-.03.02-.2.05-.4.1-.39.09-.44.02-.47-.18-.05-.15-.02-.4 0-.49.03-.08.07-.1.32-.13.1 0 .2-.03.27-.05-.29-.39-.66-.86-.96-1.23-.76-.96-.98-1.23-.98-1.3-.02-.08-.05-.32-.05-.42 0-.15.03-.25.07-.25.02 0 .12.09.61.71l.56.71v-.3c-.22-.27-.42-.52-.61-.76-.59-.74-.59-.74-.61-.86-.05-.25-.05-.39-.05-.56zm2.673 4.662c-.123-.147-.22-.564-.22-.907 0-.368.097-.54.22-.393.122.147.22.54.22.908-.024.343-.122.54-.22.392zm16.217.638c.027-.028.08-.055.135-.055.162-.027.135.027 2.914 1.51.91.486 1.86 1 2.8 1.484-.22-.25-.41-.49-.62-.76-.7-.78-.73-.84-.65-1.03.05-.11.35-.14.46-.08.1.05 1.78 1.94 1.86 2.13.03.05.03.16.03.24.02.16 0 .19-.33.78-.11.21-.25.43-.35.65-.06.02-.11.05-.17.1-.11.08-.25.11-.35.11-.06.02-.7-.08-1.35-.14-1.32-.11-1.46-.19-1.51-.38-.08-.14 0-.33.16-.41.08-.05.29-.03 1.1.08.32.05.64.08.97.14-.92-.49-1.86-1-2.81-1.49-2.16-1.16-2.78-1.54-2.81-1.59-.08-.08-.08-.27-.03-.35.05-.11.21-.16.35-.14.11.03.35.16 1.78.94.54.3 1.1.59 1.64.89.02-.08.08-.13.11-.22l-1.78-.97c-1.68-.92-1.73-.95-1.73-1.06 0-.19.02-.33.13-.43zm7.122 5.098c-.35-.19-.512-.54-.35-.783.135-.27.54-.323.89-.135.35.19.513.54.35.783-.16.243-.566.324-.89.135zm-37.828 9.12l.1.1c.1.1 0 .2-.7 3.3-.3 1.1-.5 2-.7 3.1.2-.3.4-.5.6-.8.6-.9.6-.9.8-.9.1 0 .2.3.2.4 0 .1-1.4 2.3-1.6 2.4-.1 0-.1.1-.2.1-.1.1-.2.1-.9-.1-.2-.1-.5-.1-.7-.2l-.1-.1c-.1-.1-.2-.2-.2-.3 0-.1-.1-.7-.2-1.4-.2-1.3-.2-1.5 0-1.6.1-.1.3-.1.4.1.1.1.1.3.2 1.1 0 .3.1.6.1 1 .3-1.1.5-2 .7-3.1.6-2.4.8-3.1.8-3.2.1-.1.2-.2.3-.1.1 0 .2.2.2.3 0 .1-.1.4-.4 2-.2.6-.3 1.2-.4 1.8.1 0 .2 0 .2.1.2-.7.3-1.3.5-2 .5-1.9.5-1.9.6-2 .1-.1.2-.1.4 0zm-3.1 8.3c.1-.4.4-.6.7-.6.3.1.5.4.4.8-.1.4-.4.6-.7.6-.4 0-.5-.4-.4-.8zm-2.947-22.768c0 .036-.037.11-.037.182-.036.146-.073.182-1.68 1.863-.548.585-1.096 1.133-1.644 1.754.182-.04.33-.08.51-.11.586-.19.586-.19.622.03 0 .11-.073.44-.146.47-.073.07-1.425.47-1.534.44-.037 0-.073-.08-.11-.15-.073-.08-.073-.11-.11-.88-.036-.26-.036-.55-.073-.81 0-.08.037-.15.037-.22 0-.15.037-.29.11-.4l.584-1.25c.585-1.21.658-1.28.767-1.21.073 0 .11.22.073.44-.036.11-.11.29-.474 1.02-.147.29-.293.55-.44.84.55-.59 1.097-1.13 1.645-1.72 1.28-1.32 1.644-1.68 1.68-1.68.037 0 .11.11.11.18 0 .14-.036.33-.11.44-.036.11-.218.25-1.022 1.13-.33.36-.62.66-.987.98 0 .07 0 .18.037.25.402-.4.657-.69 1.06-1.1.986-1.03 1.022-1.06 1.06-.99.072.15.108.25.072.44zm-4.567 3.506c.183-.22.365-.11.402.183.037.32-.11.76-.33.98-.18.22-.364.14-.4-.18 0-.33.11-.77.328-.99z" fill="#438CBD"/><g fill="#438CBD"><path d="M230.408 258.063s0 .1-.1.1c-.1.1-.1.1-3.1.6-.8.1-2.2.4-3 .5l.9.3c1 .2 1.1.3 1.1.5 0 .1-.2.3-.3.4-.2 0-2.6-.5-2.8-.7-.1 0-.1-.1-.2-.2s-.1-.2-.2-.9c0-.3-.1-.5-.1-.8 0-.1 0-.1.1-.2 0-.1.1-.3.2-.3 0-.1.6-.4 1.1-.7 1.1-.7 1.2-.7 1.4-.6.2.1.2.3.1.4 0 .1-.2.2-.9.6-.3.2-.5.3-.8.5.8-.1 2.2-.3 3-.5 2.4-.4 3-.5 3.1-.5.1 0 .2.2.2.3 0 .1-.1.3-.2.3-.1.1-.4.1-1.9.4l-1.8.3v.3c.6-.1 1.3-.2 1.9-.3 1.8-.3 1.9-.3 1.9-.3.4.2.5.3.4.5z"/><path d="M222.008 258.163c.4-.1.7.2.8.5.1.3-.2.6-.6.7-.4.1-.7-.2-.8-.5 0-.3.2-.6.6-.7z"/></g><g fill="#438CBD"><path d="M240.644 247.868c0 .034 0 .07-.035.104-.04.034-.07.034-1.98-.867-.94-.45-.97-.486-1.91-.902.21.208.45.416.66.66.72.658.79.727.86.935.03.14-.04.243-.11.208-.11-.034-1.81-1.595-1.98-1.803-.04-.07-.1-.173-.17-.277-.11-.173-.11-.208-.38-.97-.11-.278-.18-.52-.28-.798v-.14c0-.103 0-.172.07-.207 0-.03.31-.06.59-.13.55-.14.65-.07.79.11.1.14.21.35.17.45 0 .07-.11.11-.45.18-.14.04-.28.04-.42.07.21.11 1.7.87 1.91.97 1.49.77 1.94 1.01 1.97 1.04.07.07.21.28.24.35.03.14.03.21-.03.21-.04 0-.25-.07-1.22-.59-.45-.24-.7-.34-1.15-.55.04.11.07.18.1.25.55.28.65.35 1.21.63 1.18.59 1.18.59 1.25.7.14.14.21.28.24.42z"/><path d="M234.992 244.054c.243.138.52.485.624.797.104.32 0 .49-.243.39-.242-.1-.485-.48-.624-.79-.11-.34 0-.52.24-.38z"/></g></svg>