<svg xmlns="http://www.w3.org/2000/svg" viewBox="0 171 512 170"><path fill="#89CBE8" d="M192 237.1c-.2-.1-.6-.3-.8-.6-.4-.4-.4-.8-.5-17l-.1-16.5-2.3 4.8c-2.4 5.1-2.7 5.5-4 5.5-.7 0-1.9-1.2-1.9-1.9 0-.5 5.8-13.1 6.4-13.7.2-.2.7-.5 1.2-.8.8-.4 1.1-.4 5.6-.4h4.7l1.1.5c.7.3 1.3.8 1.5 1.2.2.3 1.6 3.3 3.2 6.5 3.1 6.3 3.2 7 2.4 7.9-.6.7-1.7.9-2.5.3-.5-.3-1.1-1.3-2.8-5.1L201 203l-.1 16.3c-.1 12.7-.1 16.4-.3 16.7-.3.5-1.2 1.1-1.9 1.1s-1.6-.5-1.9-1.2c-.2-.5-.3-2-.3-10.4v-9.8H195V226c0 9.9 0 10.1-.4 10.5-.8.7-1.7.9-2.6.6z"/><ellipse fill="#89CBE8" cx="195.7" cy="191.9" rx="3.4" ry="3.6"/><path fill="#89CBE8" d="M411.6 309.3h-37.8c-1.8 0-3.9-2.8-3.9-4.6 0-3.1.1-6.1.2-9.1.5-3.4 1.8-6.6 3.1-9.7.3-.7.7-1.3 1.5-1.3h13.7c1.2.6 2.6 1 3.2 2.4 3.9 9.7 11.7 14.3 20.6 15.9v5.9c0 .2-.3.5-.6.5z"/><path fill="#89CBE8" d="M376.4 280.3c-.5 0-.5 1 0 1h2.2c1.9.8 3 1.8 3.5 3.3h1.6c.5-1.5 1.6-2.5 3.5-3.3h2.2c.5 0 .5-1 0-1h-13zm4.5 1h4.1c-.9.8-1.9 1.5-1.9 2.7h-.3c0-1.2-1-2-1.9-2.7z"/><path fill="#FFF" d="M372.5 292.9h17.2c.4 0 .6-.9.4-1.4-.6-1.6-1.4-4.9-2.2-4.9h-13.2c-.7 0-1.7 3.3-2.5 4.9-.2.7-.1 1.4.3 1.4zm3.2 8.2c0 .9-.7 1.6-1.6 1.6-.9 0-1.6-.7-1.6-1.6s.7-1.6 1.6-1.6c.9.1 1.6.8 1.6 1.6zm13 0c0 .9-.7 1.6-1.6 1.6-.9 0-1.6-.7-1.6-1.6s.7-1.6 1.6-1.6c.9.1 1.6.8 1.6 1.6zm7.3-4.5v5.7l-2.6-1.2c-.2-2.4-.3-4.9-.3-7.3 1 .9 2 2.2 2.9 2.8zm4 3.1v4.4l-2.5-1.1c-.1-2.4 0-2.7 0-5.1 1.1.9 1.5 1.1 2.5 1.8zm1.2.8v3.9c.7.4 1.5.6 2.4.7v-3.6l-2.4-1zm3.5 1.4v3.4c.6.2 1.3.3 2 .4v-3.3l-2-.5zm2.9.9v3.1c.5.1 1.1.2 1.6.2v-3l-1.6-.3zm2.5.4v2.9l1.3.2v-3c0 .1-1.3-.1-1.3-.1z"/><path fill="#89CBE8" d="M370 311.7h3.3v-1.6h4.9v1.6h7.2v-1.6h26.9v1.6c-7.6.3-15.3.5-19.3 2.3h-23c-.1.1 0-2.3 0-2.3zm-248-4v-9.1l3-9.2h58.7v18.5m-.6-15.5h-2.3v6.2h2.3v-6.2zm-3.2 0h-5.2v14.8h5.2v-14.8zm-6.2 0H163v6.2h10.8v-6.2zm-23.4 0h-10.8v6.2h10.8v-6.2zm-11.6 0h-4.9v14.8h4.9v-14.8zm-5.8 0h-8.2l-2.1 6.2h10.2v-6.2zm29.2 6.1v-6.2h-10.8v6.2h10.8z"/><path fill="#FFF" d="M128.2 303.1c-2.6 0-4.7 2.2-4.7 4.7s2.2 4.7 4.7 4.7c2.6 0 4.7-2.2 4.7-4.7s-2.1-4.7-4.7-4.7z"/><path fill="#89CBE8" d="M128.2 312.2c-2.4 0-4.4-2-4.4-4.4s2-4.4 4.4-4.4 4.4 2 4.4 4.4-2 4.4-4.4 4.4z"/><circle fill="#FFF" cx="128.3" cy="307.8" r="1.7"/><path fill="#FFF" d="M168.2 303.1c-2.6 0-4.7 2.2-4.7 4.7s2.2 4.7 4.7 4.7c2.6 0 4.7-2.2 4.7-4.7s-2.1-4.7-4.7-4.7z"/><path fill="#89CBE8" d="M168.2 312.2c-2.4 0-4.4-2-4.4-4.4s2-4.4 4.4-4.4c2.4 0 4.4 2 4.4 4.4s-2 4.4-4.4 4.4z"/><circle fill="#FFF" cx="168.3" cy="307.8" r="1.7"/><path fill="#89CBE8" d="M453.3 276.3l-.8-1.3-1-1-1.3-.8-1.2.8-1 1-.8 1.3-.8 2.3v2.5l.3 8.3-21 15v4.5l21.5-9.5.5 13-7.3 5.3v3.5l9.8-2.8 9.8 2.8v-3.5l-7.3-5.3.5-13 21.3 9.3V304l-20.8-14.8.3-8.3v-2.5l-.7-2.1zM45.5 307.6v-8l3.1-6.5.2-.2.2-.2.2-.2.4-.2 1.6-.2 1.6-.2h3.4l1.6.2.4.2.2.4.2 1.8v8.6h5.3v-1.3h-3.6v-12.7H106v12.7h-5.1v1.3h3.8v4.2H45.5v.3z"/><path fill="#FFF" d="M47.7 299.6l2.7-5.3h5.8v5.3h-8.5m4.4 2.6c-3.1 0-5.6 2.4-5.6 5.6 0 3.1 2.4 5.6 5.6 5.6s5.6-2.4 5.6-5.6c0-3.1-2.4-5.6-5.6-5.6z"/><path fill="#89CBE8" d="M52.1 312.2c-2.4 0-4.4-2-4.4-4.4s2-4.4 4.4-4.4c2.4 0 4.4 2 4.4 4.4s-1.9 4.4-4.4 4.4z"/><circle fill="#FFF" cx="52.2" cy="307.8" r="1.7"/><path fill="#FFF" d="M90.4 302.2c-3.1 0-5.6 2.4-5.6 5.6 0 3.1 2.4 5.6 5.6 5.6 3.1 0 5.6-2.4 5.6-5.6 0-3.1-2.5-5.6-5.6-5.6z"/><path fill="#89CBE8" d="M90.4 312.2c-2.4 0-4.4-2-4.4-4.4s2-4.4 4.4-4.4 4.4 2 4.4 4.4-2 4.4-4.4 4.4z"/><circle fill="#FFF" cx="90.5" cy="307.8" r="1.7"/><path fill="#89CBE8" d="M352.2 307.6v-7.9l-3.9-9.3H339v-1h-52.3v.5h-3.5l-2.1-1h-3.9l-.6 1-3.9 9.6v7.6h-.6v1.8h1v1h10.8l1.8-2.7h10.1l1.6 2.7H328l1.4-2.7h10.1l1.6 3.1h10.8v-.8h.8v-1.8h-.5zm-73.5-7.8h-4.5l2.9-7.9h1.4v7.9h.2zm2.6 0h-1.9V292h1.9v7.8zm2.5 0h-1.9V292h1.9v7.8zm14.3 0h-12.7V292h12.7v7.8zm13.9 0h-12.5V292h12.7v7.9h-.2zm13.8 0h-12.7V292h12.7v7.8zm14 0h-12.7V292h12.7v7.8zm3.7 0h-1.9V292h1.9v7.8zm2.4 0h-1.8V292h1.8v7.8zm1-.1V292h1.3l3.2 7.7h-4.5z"/><path fill="none" stroke="#89CBE8" stroke-width=".48" stroke-miterlimit="3.86" d="M293.6 289.2l8.2-5.1-8.2-5.1-8.2 5.1 8.2 5.1z"/><circle fill="#89CBE8" cx="287.7" cy="310.3" r="2.8"/><circle fill="#89CBE8" cx="293.6" cy="310.2" r="2.8"/><circle fill="#89CBE8" cx="331.5" cy="310.3" r="2.8"/><circle fill="#89CBE8" cx="337.4" cy="310.2" r="2.8"/><path fill="#89CBE8" d="M251.1 306.1v-10.7h-6.4v-4h2.9v-1.8h-15.1v4.7h-4.1v-2.4c0-.3-.2-.5-.5-.5H226c-.3 0-.5.2-.5.5v2.4h-2.9V291c-.6-1.9-3.9-1.9-4.7 0v3.3h-5.3v-7h-3.5v7h-2.3l-.1.2v.9c-.6 1-1 2.2-1 3.5s.3 2.4.9 3.4v.7h-4.7v3.2h-3.1v2.5h4.9v.2c0 1.5 1.1 2.7 3 2.9h.3c1.5-.2 2.6-1.4 2.6-2.9h.6v1.4c0 .2.1.3.3.3h3.4c.2 0 .3-.1.3-.3v-1.7h1.3c.3 1.8 1.9 3.1 3.7 3.1s3.4-1.3 3.7-3.1h1.7c.3 1.8 1.9 3.1 3.7 3.1s3.4-1.3 3.7-3.1h1.7c.3 1.8 1.9 3.1 3.7 3.1s3.4-1.3 3.7-3.1h13v-2.5h-3zm-41.8 1.6c-.5-1.1-1.5-1.8-2.7-1.8-1.4 0-2.5.9-2.8 2.2h-.6c.3-1.6 1.8-2.7 3.4-2.7 1.5 0 2.8 1 3.3 2.4h-.6v-.1zm13.4-1.4c-.6-1.3-1.9-2.1-3.4-2.1s-2.8.8-3.4 2.1h-1.6v-2h-1.8v-.6h2.4v2.1h.6c.8-1.3 2.2-2.1 3.8-2.1 1.8 0 3.4 1.1 4.1 2.7l-.7-.1zm9.2 0c-.6-1.3-1.9-2.1-3.4-2.1s-2.8.9-3.4 2.1h-.6c.7-1.6 2.2-2.7 4-2.7s3.4 1.1 4 2.7h-.6zm9.5 1.4c-.1-2-1.8-3.5-3.8-3.5-1.5 0-2.8.9-3.4 2.1h-.7c.7-1.6 2.2-2.7 4-2.7 2.3 0 4.2 1.8 4.4 4.1h-.5zm.9-10h-4.9v-6.1h4.9v6.1z"/><path fill="#FFF" stroke="#89CBE8" stroke-width="1.38" stroke-linejoin="round" d="M300 200.7l21.6 9.2 21-10.6-21.2-7.1-21.4 8.5z"/><path fill="#89CBE8" stroke="#89CBE8" stroke-width="1.38" stroke-linejoin="round" d="M321.6 209.9v24.4l21-13.8v-21.2l-21 10.6z"/><path fill="#FFF" stroke="#89CBE8" stroke-width="1.38" stroke-linejoin="round" d="M300 200.7l21.6 9.2v24.4l-21.6-12v-21.6z"/><path fill="#89CBE8" d="M306.2 214.3v4.1l2.6 1.5v-4.1l1.4 1.2.1.1c.3.2.5.1.5-.2v-.3l-3.3-6.6-.1-.1-3.2 2.8c-.1 0-.1.1-.1.2 0 .3.2.6.5.8.1.1.1.1.3.2.1 0 1.1.3 1.3.4z"/><path fill="#89CBE8" d="M312.8 218.1v4.1l2.6 1.5v-4.1l1.4 1.2.1.1c.3.2.5.1.5-.2v-.3l-3.3-6.6-.1-.1-3.2 2.8c-.1 0-.1.1-.1.2 0 .3.2.6.5.8.1.1.1.1.3.2.3.1 1.1.4 1.3.4zm-1.4-21.7l19.5 8.2 1.5-.6-19.7-8.2-1.3.6zm-78.1 2.3h41.6c1.5 0 2.8 1.2 2.8 2.8v22.6c0 1.5-1.2 2.8-2.8 2.8h-41.6c-1.5 0-2.8-1.2-2.8-2.8v-22.5c-.1-1.7 1.1-2.9 2.8-2.9z"/><path fill="#FFF" d="M259.5 211l15.2-9.6-21.3 10.4-20-10.4 14.4 9.6-14.4 13.9 15.9-12.9 4.1 2.7 4.5-2.8 16.8 13"/></svg>